<?xml version="1.0" encoding="UTF-8"?>
<svg version="1.1" xmlns="http://www.w3.org/2000/svg" width="512" height="512">
<path d="M0 0 C0.73702148 0.35819824 1.47404297 0.71639648 2.23339844 1.08544922 C33.47075319 16.47868786 62.48186629 39.60576054 84 67 C84.6290625 67.75023438 85.258125 68.50046875 85.90625 69.2734375 C128.4466754 120.35681718 145.17544616 187.67568489 139.74609375 253.05761719 C136.91367775 283.02737097 128.14300245 311.99598216 115 339 C114.64180176 339.73702148 114.28360352 340.47404297 113.91455078 341.23339844 C98.580016 372.35162599 75.44795168 401.70235759 48 423 C46.7223871 424.01789143 45.44506332 425.03614582 44.16796875 426.0546875 C34.24664487 433.88964276 23.99164258 440.76009426 13 447 C11.80213867 447.68425049 11.80213867 447.68425049 10.58007812 448.38232422 C-10.65105422 460.36994183 -33.21482673 468.7350638 -57 474 C-57.87479004 474.19819336 -58.74958008 474.39638672 -59.65087891 474.60058594 C-122.70005374 488.54358824 -191.31583386 476.10058831 -246 442 C-251.82061563 438.21043531 -257.43730222 434.1562124 -263 430 C-263.61327148 429.54512207 -264.22654297 429.09024414 -264.85839844 428.62158203 C-280.94853413 416.60884298 -295.45183994 402.65240871 -308 387 C-308.63679688 386.24203125 -309.27359375 385.4840625 -309.9296875 384.703125 C-353.35340349 332.45052069 -369.46846366 264.10297889 -363.35498047 197.43603516 C-357.02770665 136.19115777 -325.13705543 74.5248808 -277.3125 35.1875 C-275.54390078 33.788837 -273.77319013 32.39283817 -272 31 C-271.24976563 30.3709375 -270.49953125 29.741875 -269.7265625 29.09375 C-195.21420773 -32.95749425 -86.0575418 -41.88467396 0 0 Z " fill="#266FC6" transform="translate(368,29)"/>
<path d="M0 0 C8.58 0 17.16 0 26 0 C26 11.55 26 23.1 26 35 C29.3 35.33 32.6 35.66 36 36 C38.76131966 36.78593435 41.28894325 37.58100904 43.9375 38.625 C44.62062256 38.88861328 45.30374512 39.15222656 46.00756836 39.42382812 C52.16846099 41.89600118 57.64364173 45.07079958 63 49 C63.63035156 49.44730469 64.26070312 49.89460938 64.91015625 50.35546875 C77.23847601 59.93168068 85.00600355 75.23564384 88.4375 90.1875 C88.60161377 90.89922363 88.76572754 91.61094727 88.93481445 92.34423828 C90.18901047 98.48537712 90 103.45128923 90 110 C71.85 110 53.7 110 35 110 C34.34 105.05 33.68 100.1 33 95 C30.66670919 87.10270802 27.86523794 82.61720905 21 78 C15.53517224 75.14338549 9.0235138 75.22532237 3 76 C-2.95959746 78.3336935 -7.16512987 82.41668478 -10.078125 88.10546875 C-11.33353114 92.04723126 -11.36820715 95.69942699 -11.375 99.8125 C-11.41173828 100.96588867 -11.41173828 100.96588867 -11.44921875 102.14257812 C-11.48392197 108.99646427 -9.46492017 113.91349126 -5.203125 119.25 C4.07980351 127.56750394 15.75487101 131.98766442 26.98095703 137.07324219 C50.61545692 147.79851143 74.21677668 159.83813336 85 185 C87.94046684 193.09830817 88.51289689 200.81051657 88.4375 209.375 C88.43065186 210.56730225 88.42380371 211.75960449 88.41674805 212.98803711 C88.26364498 221.35595123 87.54269051 228.33193963 84 236 C83.649375 236.86882812 83.29875 237.73765625 82.9375 238.6328125 C79.89345861 245.54532316 75.28848848 250.68452944 70 256 C69.40703125 256.62777344 68.8140625 257.25554687 68.203125 257.90234375 C56.64992119 269.17438552 38.80058899 275 23 275 C23 285.89 23 296.78 23 308 C14.42 308 5.84 308 -3 308 C-3 297.11 -3 286.22 -3 275 C-6.63 274.67 -10.26 274.34 -14 274 C-32.57655032 270.61374932 -49.89822102 261.7352864 -61.4375 246.5 C-71.77948063 231.23326669 -76 215.39372178 -76 197 C-57.85 197 -39.7 197 -21 197 C-20.505 202.445 -20.505 202.445 -20 208 C-18.12325468 216.42129311 -15.04280561 224.49196132 -7.75390625 229.5625 C0.47118853 234.31657777 9.30735577 235.70979962 18.67578125 233.31640625 C25.23324719 230.66035702 28.60519515 226.74151299 31.8125 220.4375 C34.3962412 212.73056911 34.04101927 203.5057447 31.01171875 195.98046875 C24.20992195 182.66575456 7.21810831 177.65677638 -5.66601562 172.07397461 C-28.70558706 162.08865764 -53.04576287 150.7787877 -63 126 C-63.37253906 125.08734375 -63.74507812 124.1746875 -64.12890625 123.234375 C-69.3549912 108.15702886 -69.53711653 88.68994084 -63 74 C-54.15047739 55.98186141 -39.57432453 44.41021615 -20.9375 37.5625 C-14.0911229 35.76082182 -7.01737016 34.93564935 0 34 C0 22.78 0 11.56 0 0 Z " fill="#FDFEFE" transform="translate(249,102)"/>
</svg>
